<?xml version="1.0" encoding="utf-8"?>
<!-- Generator: Adobe Illustrator 21.0.2, SVG Export Plug-In . SVG Version: 6.00 Build 0)  -->
<svg version="1.1" id="Layer_1" xmlns="http://www.w3.org/2000/svg" xmlns:xlink="http://www.w3.org/1999/xlink" x="0px" y="0px"
	 viewBox="150 106.1 541.9 383.1" style="enable-background:new 0 0 841.9 595.3;" xml:space="preserve">
<style type="text/css">
	.st0{opacity:0.5;}
	.st1{fill:#FFFFFF;}
	.st2{opacity:0.5;fill:#FFFFFF;}
	.st3{fill:none;stroke:#FFFFFF;stroke-width:0.863;stroke-miterlimit:10;}
	.st4{fill:none;stroke:#FFFFFF;stroke-width:0.691;stroke-miterlimit:10;}
</style>
<g class="st0">
	<path class="st1" d="M281,336.2c0-0.6-0.2-1-0.6-1c-0.4-0.1-0.8-0.1-1.3-0.1v-1c9-1.9,18-3.5,27-5c4.2-0.7,7.6-0.2,10.1,1.4
		s3.8,4.3,3.8,8.1c0,3-0.9,5.5-2.7,7.5c-1.8,2-4,3.7-6.7,5.1c2.5,3.3,5,6.7,7.5,10c0.3,0.4,0.7,0.7,1.2,1s1.1,0.3,1.7,0.3v1
		c-5.7,0.8-11.4,1.6-17.1,2.6v-1c0.4-0.1,0.8-0.2,1.3-0.4c0.5-0.2,0.7-0.5,0.7-1c0-0.3-0.3-0.9-0.9-1.9s-1.3-2.1-2-3.2
		c-0.8-1.1-1.5-2.2-2.2-3.3c-0.7-1-1.1-1.7-1.3-2c-2.7,0.5-5.4,0.9-8.1,1.4v11.1c0,0.6,0.2,1,0.6,1c0.4,0.1,0.9,0.1,1.6,0v1
		c-4.8,0.9-9.6,1.8-14.5,2.8v-1c0.3-0.1,0.7-0.3,1.1-0.6c0.4-0.2,0.6-0.7,0.6-1.3v-31.5H281z M303.5,345.5c1.8-0.3,3.2-0.9,4.3-1.8
		c1-0.9,1.6-2.1,1.6-3.6c0-1.3-0.4-2.3-1.3-3s-2.6-0.9-5.1-0.5c-3.8,0.6-7.6,1.3-11.4,2v9C295.5,346.8,299.5,346.1,303.5,345.5"/>
</g>
<g class="st0">
	<path class="st1" d="M361.6,323.8c-0.9,0.1-1.5,0.3-2,0.5s-0.7,0.6-0.7,1.2v31.6c0,0.6,0.2,1,0.7,1.1s1.1,0.2,2,0.2v1
		c-5.6,0.5-11.2,1-16.8,1.6v-1c0.8-0.1,1.5-0.3,2-0.5s0.7-0.6,0.7-1.2v-31.6c0-0.6-0.2-1-0.7-1.1s-1.1-0.2-2-0.1v-1
		c5.6-0.6,11.2-1.1,16.8-1.6V323.8z"/>
</g>
<g class="st0">
	<path class="st1" d="M399.7,321.7c0,0.3,0,0.7,0,1c-0.3,0-0.8,0.1-1.3,0.1c-0.5,0.1-0.8,0.3-0.8,0.8c0,0.1,0.2,0.7,0.5,1.6
		c0.3,1,0.8,2.2,1.3,3.6s1.1,3,1.7,4.6c0.6,1.7,1.2,3.3,1.8,4.8c0.6,1.5,1.1,2.8,1.5,4s0.7,1.9,0.8,2.3c0.1,0,0.1,0,0.2,0
		c0.7-1.8,1.6-3.9,2.6-6.2c1-2.4,2-4.6,2.9-6.8c0.9-2.2,1.7-4,2.3-5.6c0.6-1.6,1-2.5,1-2.6c0-0.4-0.3-0.7-0.8-0.7s-0.9-0.1-1.2-0.1
		v-1c4.7-0.1,9.5,0,14.2,0v1c-0.5,0.1-0.8,0.1-1.1,0.3c-0.3,0.1-0.5,0.4-0.6,0.9c-0.2,0.6-0.6,1.8-1.3,3.6c-0.7,1.8-1.6,3.8-2.6,6.1
		c-1,2.3-2,4.8-3.1,7.3c-1.1,2.6-2.1,5-3,7.2s-1.7,4-2.3,5.5c-0.6,1.5-0.9,2.3-0.9,2.4c0,0.4,0.2,0.8,0.6,1s0.8,0.3,1.2,0.3v1
		c-6,0.1-12,0.2-18,0.4v-1c0.4,0,0.8-0.1,1.2-0.3c0.4-0.3,0.6-0.6,0.6-1.1c0-0.1-0.3-0.9-0.8-2.5s-1.2-3.6-2-5.9s-1.7-4.9-2.7-7.7
		c-1-2.8-1.9-5.3-2.9-7.7c-0.9-2.4-1.7-4.4-2.3-6c-0.7-1.6-1.1-2.5-1.3-2.6c-0.3-0.2-0.6-0.3-0.8-0.3c-0.2,0-0.4,0-0.6,0v-1
		C388.9,322.1,394.3,321.9,399.7,321.7"/>
</g>
<g class="st0">
	<path class="st1" d="M489,355.8c1.1,0.1,1.9-0.5,2.2-1.9c0.3,0,0.7,0.1,1,0.1v10.9c-0.3,0-0.6-0.1-0.9-0.1
		c-0.3-0.8-0.6-1.3-0.9-1.4s-0.8-0.2-1.5-0.3c-12.6-1.2-25.3-2.1-37.9-2.5v-1c0.6,0,1.2-0.1,1.7-0.3c0.5-0.1,0.7-0.5,0.7-1.1v-31.6
		c0-0.6-0.2-1-0.7-1.2s-1-0.3-1.7-0.4v-1c12.9,0.5,25.8,1.3,38.6,2.6c0.3,0,0.7,0,1-0.2s0.5-0.7,0.5-1.4c0.3,0,0.7,0.1,1,0.1v11.1
		c-0.3,0-0.7-0.1-1-0.1c0-0.8-0.2-1.4-0.5-1.7c-0.3-0.3-0.7-0.4-1-0.5c-8.3-0.8-16.5-1.5-24.8-2v6.7c5.3,0.3,10.7,0.7,16,1.1
		c0.3,0,0.7-0.1,1-0.3c0.3-0.2,0.5-0.7,0.5-1.5c0.3,0,0.7,0.1,1,0.1v10.8c-0.3,0-0.7-0.1-1-0.1c0-0.8-0.2-1.3-0.5-1.6
		c-0.3-0.3-0.7-0.4-1-0.5c-5.3-0.5-10.7-0.8-16-1.1v8.2C472.9,354.4,481,355,489,355.8"/>
</g>
<g class="st0">
	<path class="st1" d="M514.3,331c0-0.6-0.2-1-0.6-1.2c-0.4-0.2-0.8-0.4-1.3-0.5v-1c9.1,1.2,18.1,2.6,27.1,4.2
		c4.2,0.8,7.6,2.4,10,4.8c2.5,2.4,3.7,5.6,3.7,9.4c0,3-0.9,5.2-2.6,6.6c-1.8,1.4-4,2.3-6.7,2.8c2.5,4.2,5,8.4,7.5,12.6
		c0.3,0.5,0.7,1,1.2,1.4s1.1,0.7,1.7,0.8v1c-5.7-1.2-11.3-2.2-17-3.2c0-0.3,0-0.7,0-1c0.4,0.1,0.8,0.1,1.3,0s0.7-0.3,0.7-0.7
		c0-0.3-0.3-1-0.9-2.2c-0.6-1.2-1.3-2.5-2-3.9c-0.8-1.4-1.5-2.7-2.2-4s-1.1-2.1-1.3-2.5c-2.7-0.5-5.4-0.9-8.1-1.3v11.1
		c0,0.6,0.2,1,0.6,1.3c0.4,0.2,0.9,0.4,1.6,0.6v1c-4.8-0.8-9.7-1.5-14.5-2.1v-1c0.3,0,0.7-0.1,1.1-0.2c0.4-0.1,0.6-0.5,0.6-1.1V331
		H514.3z M536.9,348c1.8,0.3,3.2,0.2,4.3-0.4c1-0.6,1.6-1.6,1.6-3.1c0-1.3-0.4-2.4-1.3-3.4c-0.9-1-2.6-1.8-5.1-2.2
		c-3.8-0.7-7.6-1.3-11.4-1.9v9C528.9,346.6,532.9,347.3,536.9,348"/>
</g>
<g class="st0">
	<path class="st1" d="M185.1,322.6c-0.2,0.7-0.3,1.9-0.3,3.6c0,1.1,0.9,2.1,2.6,3c1.8,0.9,4,1.5,6.8,1.9s6,0.5,9.6,0.3
		s7.3-0.8,11-1.8c7.2-1.9,12.4-4.2,15.8-6.9c3.4-2.8,5-6,5-9.6c0-2-1.5-3.1-4.4-3.2s-6.6,0.1-11,0.8c-4.4,0.6-9.1,1.3-14.2,2.1
		c-5.1,0.8-9.8,1-14.1,0.7c-4.4-0.3-8-1.5-10.9-3.7s-4.3-5.9-4.3-11.2c0-4.2,0.8-8.3,2.5-12.3s4-7.6,7-11s6.6-6.4,10.9-9
		c4.3-2.6,9-4.7,14.3-6.1c4.9-1.3,9.4-2.1,13.6-2.5c4.2-0.3,8-0.4,11.2-0.3c3.3,0.1,6,0.3,8.2,0.5s3.8,0.2,4.8,0s1.7-0.6,2.3-1.3
		c0.6-0.6,1.1-1.3,1.6-2.1c0.5,0.1,1.1,0.2,1.6,0.3c-3.3,8.4-6.7,16.9-10,25.4c-0.6-0.2-1.2-0.4-1.7-0.6v-1.8c0-1-0.9-1.8-2.8-2.4
		c-1.9-0.6-4.3-1-7.1-1.2c-2.9-0.1-6.1,0-9.6,0.3s-7,1-10.3,1.9c-6.2,1.7-10.5,3.7-13,6.1s-3.7,4.5-3.7,6.4s0.9,3.1,2.6,3.5
		c1.7,0.5,3.9,0.5,6.7,0.2s5.9-0.8,9.4-1.5s7.2-1.2,10.9-1.6s7.4-0.5,10.9-0.3s6.7,0.9,9.5,2.2c2.8,1.3,5.1,3.4,6.8,6.2
		c1.7,2.8,2.6,6.6,2.6,11.4c0,3.7-0.6,7.4-2,11.3c-1.3,3.8-3.5,7.5-6.6,11s-7.3,6.7-12.5,9.6s-11.7,5.4-19.5,7.4
		c-6,1.6-11.2,2.7-15.5,3.3c-4.3,0.6-8,0.9-11,0.8c-3,0-5.4-0.1-7.2-0.4c-1.8-0.2-3.1-0.2-3.9,0.1c-0.6,0.2-1.1,0.6-1.5,1.1
		c-0.4,0.6-0.9,1.2-1.3,1.9c-0.6,0-1.1,0-1.7,0c3.5-11,7-22.1,10.5-33C184.1,322.4,184.6,322.5,185.1,322.6"/>
</g>
<g class="st0">
	<path class="st1" d="M260.8,255.8c0-1.2-0.3-1.9-0.9-2.1c-0.6-0.2-1.1-0.3-1.4-0.4v-2c12.7-2.6,25.4-4.9,38.2-6.9
		c3.6-0.6,7.1-0.7,10.4-0.6c3.4,0.2,6.3,1,8.8,2.5c2.5,1.4,4.6,3.6,6.1,6.5c1.6,2.9,2.3,6.8,2.3,11.6s-0.8,8.8-2.3,12.1
		c-1.6,3.3-3.6,6-6.1,8.1s-5.5,3.7-8.8,4.9c-3.4,1.1-6.8,2-10.4,2.6c-5.5,0.9-11,1.8-16.4,2.8v20.7c0,1.2,0.4,1.9,1.1,2.1
		s1.5,0.3,2.3,0.3v2c-8.4,1.5-16.8,3-25.1,4.8v-2c0.3-0.2,0.7-0.5,1.4-1c0.6-0.5,0.9-1.3,0.9-2.5v-63.5H260.8z M294.1,278.5
		c4.1-0.7,7-1.8,8.7-3.6c1.8-1.8,2.6-4.4,2.6-8c0-3.4-0.8-5.8-2.3-7.2c-1.6-1.3-4.2-1.7-7.9-1.1c-5,0.8-10,1.6-15,2.5v19.7
		C284.8,280,289.4,279.2,294.1,278.5"/>
</g>
<g class="st0">
	<path class="st2" d="M354.1,239.5c-1.5,0.2-2.6,0.6-3.4,1s-1.2,1.2-1.2,2.4v63.4c0,1.2,0.4,2,1.2,2.2c0.8,0.3,2,0.4,3.4,0.4v2
		c-9.7,0.8-19.3,1.8-29,2.9v-2c1.5-0.3,2.6-0.6,3.4-1.1c0.8-0.4,1.2-1.3,1.2-2.5v-63.4c0-1.2-0.4-2-1.2-2.2c-0.8-0.2-2-0.3-3.4-0.3
		v-2c9.7-1.2,19.3-2.1,29-2.9V239.5z"/>
</g>
<g class="st0">
	<path class="st1" d="M365.4,241.6c0-1.2-0.4-2-1.1-2.3s-1.6-0.4-2.7-0.5v-2c14.7-1.1,29.4-1.8,44.1-2c5.5-0.1,10.1,0.9,14,2.9
		c3.8,2,7,4.7,9.5,8.1c2.5,3.4,4.3,7.3,5.4,11.8s1.7,9.2,1.7,14.1s-0.6,9.6-1.7,14s-2.9,8.3-5.4,11.6c-2.5,3.3-5.7,6-9.5,8
		s-8.5,3-14,3.1c-14.7,0.3-29.4,0.9-44.1,2v-2c1.1-0.2,2-0.5,2.7-0.9s1.1-1.2,1.1-2.4V241.6z M395.6,292.5
		c7.6-0.2,13.1-1.8,16.5-4.9c3.3-3.1,5-8.5,5-16.1c0-7.7-1.7-13-5-16.1c-3.3-3-8.8-4.5-16.5-4.3c-3.5,0.1-7.1,0.2-10.6,0.4v41.4
		C388.6,292.8,392.1,292.6,395.6,292.5"/>
</g>
<g class="st0">
	<path class="st1" d="M442.8,240c0-1.2-0.4-2-1.1-2.4s-1.6-0.6-2.7-0.7v-2c14.7,0.3,29.4,1.1,44.1,2.2c5.5,0.4,10.1,1.9,13.9,4.2
		c3.8,2.4,7,5.4,9.4,9c2.5,3.6,4.3,7.7,5.4,12.3s1.7,9.3,1.7,14.2c0,4.9-0.6,9.5-1.7,13.8c-1.1,4.3-2.9,8-5.4,11.1s-5.6,5.4-9.4,7
		s-8.5,2.2-13.9,1.8c-14.7-1.2-29.4-1.9-44.1-2.2v-2c1.1-0.1,2-0.3,2.7-0.6c0.7-0.3,1.1-1.1,1.1-2.3L442.8,240L442.8,240z
		 M473,293.9c7.6,0.5,13.1-0.6,16.4-3.3c3.3-2.8,5-8,5-15.7s-1.7-13.2-5-16.6c-3.3-3.3-8.8-5.3-16.4-5.8c-3.5-0.2-7-0.4-10.6-0.6
		v41.4C466,293.4,469.5,293.7,473,293.9"/>
</g>
<g class="st0">
	<path class="st1" d="M565.8,319.5c0.3,0.1,0.7,0.1,1.2,0c0.5,0,0.7-0.4,0.7-1.2c0-0.4-0.2-1.2-0.5-2.2s-0.7-2.1-1.2-3.3
		c-0.4-1.2-0.9-2.4-1.4-3.6s-0.9-2.2-1.2-3.1c-11.2-2-22.5-3.8-33.8-5.4c-0.2,0.8-0.5,1.7-0.9,2.7c-0.4,1.1-0.9,2.1-1.4,3.1
		s-0.9,2-1.3,2.9c-0.4,0.9-0.6,1.6-0.6,2c0,0.8,0.2,1.3,0.7,1.4c0.5,0.2,0.9,0.3,1.2,0.3v2c-7.3-1-14.6-1.9-21.9-2.7v-2
		c0.6,0.1,1.2,0,1.8-0.2c0.6-0.2,1-0.6,1.2-1.1c2.9-7.5,5.9-14.8,8.9-22.1c3-7.3,5.7-13.8,8.1-19.7c2.4-5.9,4.4-10.7,5.9-14.6
		c1.6-3.8,2.3-6,2.3-6.6c0-1-0.6-1.6-1.9-1.9v-2c10.2,1.4,20.3,3.1,30.4,4.9v2c-1.3-0.1-1.9,0.3-1.9,1.3c0,0.3,0.5,1.9,1.5,4.7
		c1,2.8,2.3,6.3,4,10.6c1.6,4.3,3.5,9,5.4,14.1c2,5.2,4,10.3,5.9,15.5c2,5.2,3.8,10.1,5.6,14.7c1.7,4.6,3.1,8.5,4.2,11.6
		c0.2,0.6,0.6,1.1,1.2,1.5c0.6,0.4,1.2,0.7,1.7,0.8v2c-8-1.7-16-3.3-24-4.8L565.8,319.5L565.8,319.5z M546.3,262.1
		c-4,9.1-8,18.2-12,27.4c8.1,1.2,16.1,2.4,24.2,3.9C554.4,282.9,550.3,272.4,546.3,262.1"/>
</g>
<g class="st0">
	<path class="st1" d="M663.3,338.5c0.8,0.2,1.3,0.1,1.7-0.4s0.7-1.7,0.9-3.5c0.6,0.2,1.1,0.4,1.7,0.5V364c-0.6-0.2-1.1-0.4-1.7-0.5
		c-0.2-1.8-0.5-3-0.9-3.5s-0.9-0.9-1.7-1.1c-24.7-7.9-49.6-14.5-74.8-19.9v-2c1.8,0.2,3,0.1,3.4-0.3s0.7-1,0.6-1.8v-77.8
		c0-0.8-0.2-1.5-0.6-2.1c-0.4-0.6-1.6-1.2-3.4-1.8v-2c9.9,2.1,19.8,4.5,29.7,7v2c-1.8-0.2-2.9-0.2-3.4,0.2c-0.4,0.4-0.6,1-0.6,1.8
		v62.4C630.7,328.7,647,333.4,663.3,338.5"/>
</g>
<g>
	<path class="st1" d="M188,318c-0.2,0.7-0.3,1.9-0.3,3.6c0,1.1,0.9,2.1,2.6,3c1.8,0.9,4,1.5,6.8,1.9s6,0.5,9.6,0.3s7.3-0.8,11-1.8
		c7.2-1.9,12.4-4.2,15.8-6.9c3.4-2.8,5-6,5-9.6c0-2-1.5-3.1-4.4-3.2s-6.6,0.1-11,0.8c-4.4,0.6-9.1,1.3-14.2,2.1
		c-5.1,0.8-9.8,1-14.1,0.7c-4.4-0.3-8-1.5-10.9-3.7s-4.3-5.9-4.3-11.2c0-4.2,0.8-8.3,2.5-12.3s4-7.6,7-11s6.6-6.4,10.9-9
		c4.3-2.6,9-4.7,14.3-6.1c4.9-1.3,9.4-2.1,13.6-2.5c4.2-0.3,8-0.4,11.2-0.3c3.3,0.1,6,0.3,8.2,0.5s3.8,0.2,4.8,0s1.7-0.6,2.3-1.3
		c0.6-0.6,1.1-1.3,1.6-2.1c0.5,0.1,1.1,0.2,1.6,0.3c-3.3,8.4-6.7,16.9-10,25.4c-0.6-0.2-1.2-0.4-1.7-0.6v-1.8c0-1-0.9-1.8-2.8-2.4
		c-1.9-0.6-4.3-1-7.1-1.2c-2.9-0.1-6.1,0-9.6,0.3s-7,1-10.3,1.9c-6.2,1.7-10.5,3.7-13,6.1s-3.7,4.5-3.7,6.4s0.9,3.1,2.6,3.5
		c1.7,0.4,3.9,0.5,6.7,0.2s5.9-0.8,9.4-1.5s7.2-1.2,10.9-1.6s7.4-0.5,10.9-0.3s6.7,0.9,9.5,2.2c2.8,1.3,5.1,3.4,6.8,6.2
		c1.7,2.8,2.6,6.6,2.6,11.4c0,3.7-0.6,7.4-2,11.3c-1.3,3.8-3.5,7.5-6.6,11s-7.3,6.7-12.5,9.6s-11.7,5.4-19.5,7.4
		c-6,1.6-11.2,2.7-15.5,3.3c-4.3,0.6-8,0.9-11,0.8c-3,0-5.4-0.1-7.2-0.4c-1.8-0.2-3.1-0.2-3.9,0.1c-0.6,0.2-1.1,0.6-1.5,1.1
		c-0.4,0.6-0.9,1.2-1.3,1.9c-0.6,0-1.1,0-1.7,0c3.5-11,7-22.1,10.5-33C187,317.7,187.5,317.9,188,318"/>
</g>
<g>
	<path class="st3" d="M188,318c-0.2,0.7-0.3,1.9-0.3,3.6c0,1.1,0.9,2.1,2.6,3c1.8,0.9,4,1.5,6.8,1.9s6,0.5,9.6,0.3s7.3-0.8,11-1.8
		c7.2-1.9,12.4-4.2,15.8-6.9c3.4-2.8,5-6,5-9.6c0-2-1.5-3.1-4.4-3.2s-6.6,0.1-11,0.8c-4.4,0.6-9.1,1.3-14.2,2.1
		c-5.1,0.8-9.8,1-14.1,0.7c-4.4-0.3-8-1.5-10.9-3.7s-4.3-5.9-4.3-11.2c0-4.2,0.8-8.3,2.5-12.3s4-7.6,7-11s6.6-6.4,10.9-9
		c4.3-2.6,9-4.7,14.3-6.1c4.9-1.3,9.4-2.1,13.6-2.5c4.2-0.3,8-0.4,11.2-0.3c3.3,0.1,6,0.3,8.2,0.5s3.8,0.2,4.8,0s1.7-0.6,2.3-1.3
		c0.6-0.6,1.1-1.3,1.6-2.1c0.5,0.1,1.1,0.2,1.6,0.3c-3.3,8.4-6.7,16.9-10,25.4c-0.6-0.2-1.2-0.4-1.7-0.6v-1.8c0-1-0.9-1.8-2.8-2.4
		c-1.9-0.6-4.3-1-7.1-1.2c-2.9-0.1-6.1,0-9.6,0.3s-7,1-10.3,1.9c-6.2,1.7-10.5,3.7-13,6.1s-3.7,4.5-3.7,6.4s0.9,3.1,2.6,3.5
		c1.7,0.4,3.9,0.5,6.7,0.2s5.9-0.8,9.4-1.5s7.2-1.2,10.9-1.6s7.4-0.5,10.9-0.3s6.7,0.9,9.5,2.2c2.8,1.3,5.1,3.4,6.8,6.2
		c1.7,2.8,2.6,6.6,2.6,11.4c0,3.7-0.6,7.4-2,11.3c-1.3,3.8-3.5,7.5-6.6,11s-7.3,6.7-12.5,9.6s-11.7,5.4-19.5,7.4
		c-6,1.6-11.2,2.7-15.5,3.3c-4.3,0.6-8,0.9-11,0.8c-3,0-5.4-0.1-7.2-0.4c-1.8-0.2-3.1-0.2-3.9,0.1c-0.6,0.2-1.1,0.6-1.5,1.1
		c-0.4,0.6-0.9,1.2-1.3,1.9c-0.6,0-1.1,0-1.7,0c3.5-11,7-22.1,10.5-33C187,317.7,187.5,317.9,188,318z"/>
</g>
<g>
	<path class="st1" d="M263.7,251.2c0-1.2-0.3-1.9-0.9-2.1c-0.6-0.2-1.1-0.3-1.4-0.4v-2c12.7-2.6,25.4-4.9,38.2-6.9
		c3.6-0.6,7.1-0.7,10.4-0.6c3.4,0.2,6.3,1,8.8,2.5c2.5,1.4,4.6,3.6,6.1,6.5c1.6,2.9,2.3,6.8,2.3,11.6s-0.8,8.8-2.3,12.1
		c-1.6,3.3-3.6,6-6.1,8.1s-5.5,3.7-8.8,4.9c-3.4,1.1-6.8,2-10.4,2.6c-5.5,0.9-11,1.8-16.4,2.7v20.7c0,1.2,0.4,1.9,1.1,2.1
		s1.5,0.3,2.3,0.3v2c-8.4,1.5-16.8,3-25.1,4.8v-2c0.3-0.2,0.7-0.5,1.4-1c0.6-0.5,0.9-1.3,0.9-2.5v-63.4H263.7z M296.9,273.9
		c4.1-0.7,7-1.8,8.7-3.6c1.8-1.8,2.6-4.4,2.6-8c0-3.4-0.8-5.8-2.3-7.2c-1.6-1.3-4.2-1.7-7.9-1.1c-5,0.8-10,1.6-15,2.5v19.7
		C287.7,275.4,292.3,274.6,296.9,273.9"/>
</g>
<g>
	<path class="st3" d="M263.7,251.2c0-1.2-0.3-1.9-0.9-2.1c-0.6-0.2-1.1-0.3-1.4-0.4v-2c12.7-2.6,25.4-4.9,38.2-6.9
		c3.6-0.6,7.1-0.7,10.4-0.6c3.4,0.2,6.3,1,8.8,2.5c2.5,1.4,4.6,3.6,6.1,6.5c1.6,2.9,2.3,6.8,2.3,11.6s-0.8,8.8-2.3,12.1
		c-1.6,3.3-3.6,6-6.1,8.1s-5.5,3.7-8.8,4.9c-3.4,1.1-6.8,2-10.4,2.6c-5.5,0.9-11,1.8-16.4,2.7v20.7c0,1.2,0.4,1.9,1.1,2.1
		s1.5,0.3,2.3,0.3v2c-8.4,1.5-16.8,3-25.1,4.8v-2c0.3-0.2,0.7-0.5,1.4-1c0.6-0.5,0.9-1.3,0.9-2.5v-63.4H263.7z M296.9,273.9
		c4.1-0.7,7-1.8,8.7-3.6c1.8-1.8,2.6-4.4,2.6-8c0-3.4-0.8-5.8-2.3-7.2c-1.6-1.3-4.2-1.7-7.9-1.1c-5,0.8-10,1.6-15,2.5v19.7
		C287.7,275.4,292.3,274.6,296.9,273.9z"/>
</g>
<g>
	<path class="st1" d="M356.9,234.9c-1.5,0.2-2.6,0.6-3.4,1s-1.2,1.2-1.2,2.4v63.4c0,1.2,0.4,2,1.2,2.2c0.8,0.3,2,0.4,3.4,0.4v2
		c-9.7,0.8-19.3,1.8-29,2.9v-2c1.5-0.3,2.6-0.6,3.4-1.1c0.8-0.4,1.2-1.3,1.2-2.5v-63.4c0-1.2-0.4-2-1.2-2.2c-0.8-0.2-2-0.3-3.4-0.3
		v-2c9.7-1.2,19.3-2.1,29-2.9V234.9z"/>
</g>
<g>
	<path class="st3" d="M356.9,234.9c-1.5,0.2-2.6,0.6-3.4,1s-1.2,1.2-1.2,2.4v63.4c0,1.2,0.4,2,1.2,2.2c0.8,0.3,2,0.4,3.4,0.4v2
		c-9.7,0.8-19.3,1.8-29,2.9v-2c1.5-0.3,2.6-0.6,3.4-1.1c0.8-0.4,1.2-1.3,1.2-2.5v-63.4c0-1.2-0.4-2-1.2-2.2c-0.8-0.2-2-0.3-3.4-0.3
		v-2c9.7-1.2,19.3-2.1,29-2.9V234.9z"/>
</g>
<g>
	<path class="st1" d="M368.2,237c0-1.2-0.4-2-1.1-2.3s-1.6-0.4-2.7-0.5v-2c14.7-1.1,29.4-1.8,44.1-2c5.5-0.1,10.1,0.9,14,2.9
		c3.8,2,7,4.7,9.5,8.1c2.5,3.4,4.3,7.3,5.4,11.8s1.7,9.2,1.7,14.1s-0.6,9.6-1.7,14s-2.9,8.3-5.4,11.6c-2.5,3.3-5.7,6-9.5,8
		s-8.5,3-14,3.1c-14.7,0.3-29.4,0.9-44.1,2v-2c1.1-0.2,2-0.5,2.7-0.9s1.1-1.2,1.1-2.4V237z M398.5,287.9c7.6-0.2,13.1-1.8,16.5-4.9
		c3.3-3.1,5-8.5,5-16.1c0-7.7-1.7-13-5-16.1c-3.3-3-8.8-4.5-16.5-4.3c-3.5,0.1-7.1,0.2-10.6,0.4v41.4
		C391.4,288.2,395,288,398.5,287.9"/>
</g>
<g>
	<path class="st3" d="M368.2,237c0-1.2-0.4-2-1.1-2.3s-1.6-0.4-2.7-0.5v-2c14.7-1.1,29.4-1.8,44.1-2c5.5-0.1,10.1,0.9,14,2.9
		c3.8,2,7,4.7,9.5,8.1c2.5,3.4,4.3,7.3,5.4,11.8s1.7,9.2,1.7,14.1s-0.6,9.6-1.7,14s-2.9,8.3-5.4,11.6c-2.5,3.3-5.7,6-9.5,8
		s-8.5,3-14,3.1c-14.7,0.3-29.4,0.9-44.1,2v-2c1.1-0.2,2-0.5,2.7-0.9s1.1-1.2,1.1-2.4V237z M398.5,287.9c7.6-0.2,13.1-1.8,16.5-4.9
		c3.3-3.1,5-8.5,5-16.1c0-7.7-1.7-13-5-16.1c-3.3-3-8.8-4.5-16.5-4.3c-3.5,0.1-7.1,0.2-10.6,0.4v41.4
		C391.4,288.2,395,288,398.5,287.9z"/>
</g>
<g>
	<path class="st1" d="M445.6,235.4c0-1.2-0.4-2-1.1-2.4s-1.6-0.6-2.7-0.7v-2c14.7,0.3,29.4,1.1,44.1,2.2c5.5,0.4,10.1,1.9,13.9,4.2
		c3.8,2.4,7,5.4,9.4,9c2.5,3.6,4.3,7.7,5.4,12.3s1.7,9.3,1.7,14.2c0,4.9-0.6,9.5-1.7,13.8c-1.1,4.3-2.9,8-5.4,11.1s-5.6,5.4-9.4,7
		s-8.5,2.2-13.9,1.8c-14.7-1.2-29.4-1.9-44.1-2.2v-2c1.1-0.1,2-0.3,2.7-0.6c0.7-0.3,1.1-1.1,1.1-2.3V235.4z M475.9,289.3
		c7.6,0.5,13.1-0.6,16.4-3.3c3.3-2.8,5-8,5-15.7s-1.7-13.2-5-16.6c-3.3-3.3-8.8-5.3-16.4-5.8c-3.5-0.2-7-0.4-10.6-0.6v41.4
		C468.9,288.8,472.4,289,475.9,289.3"/>
</g>
<g>
	<path class="st3" d="M445.6,235.4c0-1.2-0.4-2-1.1-2.4s-1.6-0.6-2.7-0.7v-2c14.7,0.3,29.4,1.1,44.1,2.2c5.5,0.4,10.1,1.9,13.9,4.2
		c3.8,2.4,7,5.4,9.4,9c2.5,3.6,4.3,7.7,5.4,12.3s1.7,9.3,1.7,14.2c0,4.9-0.6,9.5-1.7,13.8c-1.1,4.3-2.9,8-5.4,11.1s-5.6,5.4-9.4,7
		s-8.5,2.2-13.9,1.8c-14.7-1.2-29.4-1.9-44.1-2.2v-2c1.1-0.1,2-0.3,2.7-0.6c0.7-0.3,1.1-1.1,1.1-2.3V235.4z M475.9,289.3
		c7.6,0.5,13.1-0.6,16.4-3.3c3.3-2.8,5-8,5-15.7s-1.7-13.2-5-16.6c-3.3-3.3-8.8-5.3-16.4-5.8c-3.5-0.2-7-0.4-10.6-0.6v41.4
		C468.9,288.8,472.4,289,475.9,289.3z"/>
</g>
<g>
	<path class="st1" d="M568.6,314.9c0.3,0.1,0.7,0.1,1.2,0c0.5,0,0.7-0.4,0.7-1.2c0-0.4-0.2-1.2-0.5-2.2s-0.7-2.1-1.2-3.3
		c-0.4-1.2-0.9-2.4-1.4-3.6s-0.9-2.2-1.2-3.1c-11.2-2-22.5-3.8-33.8-5.4c-0.2,0.8-0.5,1.7-0.9,2.7c-0.4,1.1-0.9,2.1-1.4,3.1
		s-0.9,2-1.3,2.9c-0.4,0.9-0.6,1.6-0.6,2c0,0.8,0.2,1.3,0.7,1.4c0.5,0.2,0.9,0.3,1.2,0.3v2c-7.3-1-14.6-1.9-21.9-2.6v-2
		c0.6,0.1,1.2,0,1.8-0.2c0.6-0.2,1-0.6,1.2-1.1c2.9-7.5,5.9-14.8,8.9-22.1c3-7.3,5.7-13.8,8.1-19.7c2.4-5.9,4.4-10.7,5.9-14.6
		c1.6-3.8,2.3-6,2.3-6.6c0-1-0.6-1.6-1.9-1.9v-2c10.2,1.4,20.3,3.1,30.4,4.9v2c-1.3-0.1-1.9,0.3-1.9,1.3c0,0.3,0.5,1.9,1.5,4.7
		s2.3,6.3,4,10.6c1.6,4.3,3.5,9,5.4,14.1c2,5.2,4,10.3,5.9,15.5c2,5.2,3.8,10.1,5.6,14.7c1.7,4.6,3.1,8.5,4.2,11.6
		c0.2,0.6,0.6,1.1,1.2,1.5c0.6,0.4,1.2,0.7,1.7,0.8v2c-8-1.7-16-3.3-24-4.8L568.6,314.9L568.6,314.9z M549.1,257.5
		c-4,9.1-8,18.2-12,27.4c8.1,1.2,16.1,2.4,24.2,3.9C557.3,278.3,553.2,267.8,549.1,257.5"/>
</g>
<g>
	<path class="st3" d="M568.6,314.9c0.3,0.1,0.7,0.1,1.2,0c0.5,0,0.7-0.4,0.7-1.2c0-0.4-0.2-1.2-0.5-2.2s-0.7-2.1-1.2-3.3
		c-0.4-1.2-0.9-2.4-1.4-3.6s-0.9-2.2-1.2-3.1c-11.2-2-22.5-3.8-33.8-5.4c-0.2,0.8-0.5,1.7-0.9,2.7c-0.4,1.1-0.9,2.1-1.4,3.1
		s-0.9,2-1.3,2.9c-0.4,0.9-0.6,1.6-0.6,2c0,0.8,0.2,1.3,0.7,1.4c0.5,0.2,0.9,0.3,1.2,0.3v2c-7.3-1-14.6-1.9-21.9-2.6v-2
		c0.6,0.1,1.2,0,1.8-0.2c0.6-0.2,1-0.6,1.2-1.1c2.9-7.5,5.9-14.8,8.9-22.1c3-7.3,5.7-13.8,8.1-19.7c2.4-5.9,4.4-10.7,5.9-14.6
		c1.6-3.8,2.3-6,2.3-6.6c0-1-0.6-1.6-1.9-1.9v-2c10.2,1.4,20.3,3.1,30.4,4.9v2c-1.3-0.1-1.9,0.3-1.9,1.3c0,0.3,0.5,1.9,1.5,4.7
		s2.3,6.3,4,10.6c1.6,4.3,3.5,9,5.4,14.1c2,5.2,4,10.3,5.9,15.5c2,5.2,3.8,10.1,5.6,14.7c1.7,4.6,3.1,8.5,4.2,11.6
		c0.2,0.6,0.6,1.1,1.2,1.5c0.6,0.4,1.2,0.7,1.7,0.8v2c-8-1.7-16-3.3-24-4.8L568.6,314.9L568.6,314.9z M549.1,257.5
		c-4,9.1-8,18.2-12,27.4c8.1,1.2,16.1,2.4,24.2,3.9C557.3,278.3,553.2,267.8,549.1,257.5z"/>
</g>
<g>
	<path class="st1" d="M666.2,333.9c0.8,0.2,1.3,0.1,1.7-0.4s0.7-1.7,0.9-3.5c0.6,0.2,1.1,0.4,1.7,0.5v28.9c-0.6-0.2-1.1-0.4-1.7-0.5
		c-0.2-1.8-0.5-3-0.9-3.5s-0.9-0.9-1.7-1.1c-24.7-7.9-49.6-14.5-74.8-19.9v-2c1.8,0.2,3,0.1,3.4-0.3s0.7-1,0.7-1.8v-77.8
		c0-0.8-0.2-1.5-0.7-2.1c-0.4-0.6-1.6-1.2-3.4-1.8v-2c9.9,2.1,19.8,4.5,29.7,7v2c-1.8-0.2-2.9-0.2-3.4,0.2c-0.4,0.4-0.6,1-0.6,1.8
		V320C633.5,324.1,649.9,328.8,666.2,333.9"/>
</g>
<g>
	<path class="st3" d="M666.2,333.9c0.8,0.2,1.3,0.1,1.7-0.4s0.7-1.7,0.9-3.5c0.6,0.2,1.1,0.4,1.7,0.5v28.9c-0.6-0.2-1.1-0.4-1.7-0.5
		c-0.2-1.8-0.5-3-0.9-3.5s-0.9-0.9-1.7-1.1c-24.7-7.9-49.6-14.5-74.8-19.9v-2c1.8,0.2,3,0.1,3.4-0.3s0.7-1,0.7-1.8v-77.8
		c0-0.8-0.2-1.5-0.7-2.1c-0.4-0.6-1.6-1.2-3.4-1.8v-2c9.9,2.1,19.8,4.5,29.7,7v2c-1.8-0.2-2.9-0.2-3.4,0.2c-0.4,0.4-0.6,1-0.6,1.8
		V320C633.5,324.1,649.9,328.8,666.2,333.9z"/>
</g>
<g>
	<path class="st1" d="M282.6,334.4c0-0.6-0.2-1-0.6-1c-0.4-0.1-0.8-0.1-1.3-0.1v-1c9-1.9,18-3.5,27-5c4.2-0.7,7.6-0.2,10.1,1.4
		s3.8,4.3,3.8,8.1c0,3-0.9,5.5-2.7,7.5c-1.8,2-4,3.7-6.7,5.1c2.5,3.3,5,6.7,7.5,10c0.3,0.4,0.7,0.7,1.2,1s1.1,0.3,1.7,0.3v1
		c-5.7,0.8-11.4,1.6-17.1,2.6v-1c0.4-0.1,0.8-0.2,1.3-0.4c0.5-0.2,0.7-0.5,0.7-1c0-0.3-0.3-0.9-0.9-1.9s-1.3-2.1-2-3.2
		c-0.8-1.1-1.5-2.2-2.2-3.3c-0.7-1-1.1-1.7-1.3-2c-2.7,0.5-5.4,0.9-8.1,1.4V364c0,0.6,0.2,1,0.6,1c0.4,0.1,0.9,0.1,1.6,0v1
		c-4.8,0.9-9.6,1.8-14.5,2.8v-1c0.3-0.1,0.7-0.3,1.1-0.6c0.4-0.2,0.6-0.7,0.6-1.3v-31.5H282.6z M305.1,343.8
		c1.8-0.3,3.2-0.9,4.3-1.8c1-0.9,1.6-2.1,1.6-3.6c0-1.3-0.4-2.3-1.3-3s-2.6-0.9-5.1-0.5c-3.8,0.6-7.6,1.3-11.4,2v9
		C297.1,345.1,301.1,344.4,305.1,343.8"/>
</g>
<g>
	<path class="st4" d="M282.6,334.4c0-0.6-0.2-1-0.6-1c-0.4-0.1-0.8-0.1-1.3-0.1v-1c9-1.9,18-3.5,27-5c4.2-0.7,7.6-0.2,10.1,1.4
		s3.8,4.3,3.8,8.1c0,3-0.9,5.5-2.7,7.5c-1.8,2-4,3.7-6.7,5.1c2.5,3.3,5,6.7,7.5,10c0.3,0.4,0.7,0.7,1.2,1s1.1,0.3,1.7,0.3v1
		c-5.7,0.8-11.4,1.6-17.1,2.6v-1c0.4-0.1,0.8-0.2,1.3-0.4c0.5-0.2,0.7-0.5,0.7-1c0-0.3-0.3-0.9-0.9-1.9s-1.3-2.1-2-3.2
		c-0.8-1.1-1.5-2.2-2.2-3.3c-0.7-1-1.1-1.7-1.3-2c-2.7,0.5-5.4,0.9-8.1,1.4V364c0,0.6,0.2,1,0.6,1c0.4,0.1,0.9,0.1,1.6,0v1
		c-4.8,0.9-9.6,1.8-14.5,2.8v-1c0.3-0.1,0.7-0.3,1.1-0.6c0.4-0.2,0.6-0.7,0.6-1.3v-31.5H282.6z M305.1,343.8
		c1.8-0.3,3.2-0.9,4.3-1.8c1-0.9,1.6-2.1,1.6-3.6c0-1.3-0.4-2.3-1.3-3s-2.6-0.9-5.1-0.5c-3.8,0.6-7.6,1.3-11.4,2v9
		C297.1,345.1,301.1,344.4,305.1,343.8z"/>
</g>
<g>
	<path class="st1" d="M363.2,322.1c-0.9,0.1-1.5,0.3-2,0.5s-0.7,0.6-0.7,1.2v31.6c0,0.6,0.2,1,0.7,1.1s1.1,0.2,2,0.2v1
		c-5.6,0.5-11.2,1-16.8,1.6v-1c0.8-0.1,1.5-0.3,2-0.5s0.7-0.6,0.7-1.2V325c0-0.6-0.2-1-0.7-1.1s-1.1-0.2-2-0.1v-1
		c5.6-0.6,11.2-1.1,16.8-1.6V322.1z"/>
</g>
<g>
	<path class="st4" d="M363.2,322.1c-0.9,0.1-1.5,0.3-2,0.5s-0.7,0.6-0.7,1.2v31.6c0,0.6,0.2,1,0.7,1.1s1.1,0.2,2,0.2v1
		c-5.6,0.5-11.2,1-16.8,1.6v-1c0.8-0.1,1.5-0.3,2-0.5s0.7-0.6,0.7-1.2V325c0-0.6-0.2-1-0.7-1.1s-1.1-0.2-2-0.1v-1
		c5.6-0.6,11.2-1.1,16.8-1.6V322.1z"/>
</g>
<g>
	<path class="st1" d="M401.3,320v1c-0.3,0-0.8,0.1-1.3,0.1c-0.5,0.1-0.8,0.3-0.8,0.8c0,0.1,0.2,0.7,0.5,1.6c0.3,1,0.8,2.2,1.3,3.6
		s1.1,3,1.7,4.6c0.6,1.7,1.2,3.3,1.8,4.8c0.6,1.5,1.1,2.8,1.5,4s0.7,1.9,0.8,2.3c0.1,0,0.1,0,0.2,0c0.7-1.8,1.6-3.9,2.6-6.2
		c1-2.4,2-4.6,2.9-6.8c0.9-2.2,1.7-4,2.3-5.6c0.6-1.6,1-2.5,1-2.6c0-0.4-0.3-0.7-0.8-0.7s-0.9-0.1-1.2-0.1v-1c4.7-0.1,9.5,0,14.2,0
		v1c-0.5,0.1-0.8,0.1-1.1,0.3c-0.3,0.1-0.5,0.4-0.6,0.9c-0.2,0.6-0.6,1.8-1.3,3.6c-0.7,1.8-1.6,3.8-2.6,6.1c-1,2.3-2,4.8-3.1,7.3
		c-1.1,2.6-2.1,5-3,7.2s-1.7,4-2.3,5.5c-0.6,1.5-0.9,2.3-0.9,2.4c0,0.4,0.2,0.8,0.6,1s0.8,0.3,1.2,0.3v1c-6,0.1-12,0.2-18,0.4v-1
		c0.4,0,0.8-0.1,1.2-0.3c0.4-0.3,0.6-0.6,0.6-1.1c0-0.1-0.3-0.9-0.8-2.5s-1.2-3.6-2-5.9s-1.7-4.9-2.7-7.6c-1-2.8-1.9-5.3-2.9-7.7
		c-0.9-2.4-1.7-4.4-2.3-6c-0.7-1.6-1.1-2.5-1.3-2.6c-0.3-0.2-0.6-0.3-0.8-0.3c-0.2,0-0.4,0-0.6,0v-1
		C390.5,320.4,395.9,320.2,401.3,320"/>
</g>
<g>
	<path class="st4" d="M401.3,320v1c-0.3,0-0.8,0.1-1.3,0.1c-0.5,0.1-0.8,0.3-0.8,0.8c0,0.1,0.2,0.7,0.5,1.6c0.3,1,0.8,2.2,1.3,3.6
		s1.1,3,1.7,4.6c0.6,1.7,1.2,3.3,1.8,4.8c0.6,1.5,1.1,2.8,1.5,4s0.7,1.9,0.8,2.3c0.1,0,0.1,0,0.2,0c0.7-1.8,1.6-3.9,2.6-6.2
		c1-2.4,2-4.6,2.9-6.8c0.9-2.2,1.7-4,2.3-5.6c0.6-1.6,1-2.5,1-2.6c0-0.4-0.3-0.7-0.8-0.7s-0.9-0.1-1.2-0.1v-1c4.7-0.1,9.5,0,14.2,0
		v1c-0.5,0.1-0.8,0.1-1.1,0.3c-0.3,0.1-0.5,0.4-0.6,0.9c-0.2,0.6-0.6,1.8-1.3,3.6c-0.7,1.8-1.6,3.8-2.6,6.1c-1,2.3-2,4.8-3.1,7.3
		c-1.1,2.6-2.1,5-3,7.2s-1.7,4-2.3,5.5c-0.6,1.5-0.9,2.3-0.9,2.4c0,0.4,0.2,0.8,0.6,1s0.8,0.3,1.2,0.3v1c-6,0.1-12,0.2-18,0.4v-1
		c0.4,0,0.8-0.1,1.2-0.3c0.4-0.3,0.6-0.6,0.6-1.1c0-0.1-0.3-0.9-0.8-2.5s-1.2-3.6-2-5.9s-1.7-4.9-2.7-7.6c-1-2.8-1.9-5.3-2.9-7.7
		c-0.9-2.4-1.7-4.4-2.3-6c-0.7-1.6-1.1-2.5-1.3-2.6c-0.3-0.2-0.6-0.3-0.8-0.3c-0.2,0-0.4,0-0.6,0v-1
		C390.5,320.4,395.9,320.2,401.3,320z"/>
</g>
<g>
	<path class="st1" d="M490.6,354c1.1,0.1,1.9-0.5,2.2-1.9c0.3,0,0.7,0.1,1,0.1v10.9c-0.3,0-0.6-0.1-0.8-0.1
		c-0.3-0.8-0.6-1.3-0.9-1.4s-0.8-0.2-1.5-0.3c-12.6-1.2-25.3-2.1-37.9-2.5v-1c0.6,0,1.2-0.1,1.7-0.3c0.5-0.1,0.7-0.5,0.7-1.1v-31.6
		c0-0.6-0.2-1-0.7-1.2s-1-0.3-1.7-0.4v-1c12.9,0.5,25.8,1.3,38.6,2.6c0.3,0,0.7,0,1-0.2s0.5-0.7,0.5-1.4c0.3,0,0.7,0.1,1,0.1v11.1
		c-0.3,0-0.7-0.1-1-0.1c0-0.8-0.2-1.4-0.5-1.7c-0.3-0.3-0.7-0.4-1-0.5c-8.3-0.8-16.5-1.5-24.8-2v6.7c5.3,0.3,10.7,0.7,16,1.1
		c0.3,0,0.7-0.1,1-0.3c0.3-0.2,0.5-0.7,0.5-1.5c0.3,0,0.7,0.1,1,0.1V347c-0.3,0-0.7-0.1-1-0.1c0-0.8-0.2-1.3-0.5-1.6
		c-0.3-0.3-0.7-0.4-1-0.5c-5.3-0.4-10.7-0.8-16-1.1v8.2C474.5,352.6,482.6,353.3,490.6,354"/>
</g>
<g>
	<path class="st4" d="M490.6,354c1.1,0.1,1.9-0.5,2.2-1.9c0.3,0,0.7,0.1,1,0.1v10.9c-0.3,0-0.6-0.1-0.8-0.1
		c-0.3-0.8-0.6-1.3-0.9-1.4s-0.8-0.2-1.5-0.3c-12.6-1.2-25.3-2.1-37.9-2.5v-1c0.6,0,1.2-0.1,1.7-0.3c0.5-0.1,0.7-0.5,0.7-1.1v-31.6
		c0-0.6-0.2-1-0.7-1.2s-1-0.3-1.7-0.4v-1c12.9,0.5,25.8,1.3,38.6,2.6c0.3,0,0.7,0,1-0.2s0.5-0.7,0.5-1.4c0.3,0,0.7,0.1,1,0.1v11.1
		c-0.3,0-0.7-0.1-1-0.1c0-0.8-0.2-1.4-0.5-1.7c-0.3-0.3-0.7-0.4-1-0.5c-8.3-0.8-16.5-1.5-24.8-2v6.7c5.3,0.3,10.7,0.7,16,1.1
		c0.3,0,0.7-0.1,1-0.3c0.3-0.2,0.5-0.7,0.5-1.5c0.3,0,0.7,0.1,1,0.1V347c-0.3,0-0.7-0.1-1-0.1c0-0.8-0.2-1.3-0.5-1.6
		c-0.3-0.3-0.7-0.4-1-0.5c-5.3-0.4-10.7-0.8-16-1.1v8.2C474.5,352.6,482.6,353.3,490.6,354z"/>
</g>
<g>
	<path class="st1" d="M515.9,329.3c0-0.6-0.2-1-0.6-1.2c-0.4-0.2-0.8-0.4-1.3-0.5v-1c9.1,1.2,18.1,2.6,27.1,4.2
		c4.2,0.8,7.6,2.4,10,4.8c2.5,2.4,3.7,5.6,3.7,9.4c0,3-0.9,5.2-2.6,6.6c-1.8,1.4-4,2.3-6.7,2.8c2.5,4.2,5,8.4,7.5,12.6
		c0.3,0.5,0.7,1,1.2,1.4s1.1,0.7,1.7,0.8v1c-5.6-1.2-11.3-2.2-17-3.2v-1c0.4,0.1,0.8,0.1,1.3,0s0.7-0.3,0.7-0.7c0-0.3-0.3-1-0.9-2.2
		c-0.6-1.2-1.3-2.5-2-3.9c-0.8-1.4-1.5-2.7-2.2-4s-1.1-2.1-1.3-2.5c-2.7-0.5-5.4-0.9-8.1-1.3v11.1c0,0.6,0.2,1,0.6,1.3
		c0.4,0.2,0.9,0.4,1.6,0.6v1c-4.8-0.8-9.7-1.5-14.5-2.1v-1c0.3,0,0.7-0.1,1.1-0.2c0.4-0.1,0.6-0.5,0.6-1.1v-31.7H515.9z
		 M538.5,346.3c1.8,0.3,3.2,0.2,4.3-0.4c1-0.6,1.6-1.6,1.6-3.1c0-1.3-0.4-2.4-1.3-3.4c-0.9-1-2.6-1.8-5.1-2.2
		c-3.8-0.7-7.6-1.3-11.4-1.9v9C530.5,344.9,534.5,345.6,538.5,346.3"/>
</g>
<g>
	<path class="st4" d="M515.9,329.3c0-0.6-0.2-1-0.6-1.2c-0.4-0.2-0.8-0.4-1.3-0.5v-1c9.1,1.2,18.1,2.6,27.1,4.2
		c4.2,0.8,7.6,2.4,10,4.8c2.5,2.4,3.7,5.6,3.7,9.4c0,3-0.9,5.2-2.6,6.6c-1.8,1.4-4,2.3-6.7,2.8c2.5,4.2,5,8.4,7.5,12.6
		c0.3,0.5,0.7,1,1.2,1.4s1.1,0.7,1.7,0.8v1c-5.6-1.2-11.3-2.2-17-3.2v-1c0.4,0.1,0.8,0.1,1.3,0s0.7-0.3,0.7-0.7c0-0.3-0.3-1-0.9-2.2
		c-0.6-1.2-1.3-2.5-2-3.9c-0.8-1.4-1.5-2.7-2.2-4s-1.1-2.1-1.3-2.5c-2.7-0.5-5.4-0.9-8.1-1.3v11.1c0,0.6,0.2,1,0.6,1.3
		c0.4,0.2,0.9,0.4,1.6,0.6v1c-4.8-0.8-9.7-1.5-14.5-2.1v-1c0.3,0,0.7-0.1,1.1-0.2c0.4-0.1,0.6-0.5,0.6-1.1v-31.7H515.9z
		 M538.5,346.3c1.8,0.3,3.2,0.2,4.3-0.4c1-0.6,1.6-1.6,1.6-3.1c0-1.3-0.4-2.4-1.3-3.4c-0.9-1-2.6-1.8-5.1-2.2
		c-3.8-0.7-7.6-1.3-11.4-1.9v9C530.5,344.9,534.5,345.6,538.5,346.3z"/>
</g>
<g>
	<path class="st1" d="M351.3,372.5c0.9,0,1.7,0.1,2.5,0.2c0.8,0.2,1.5,0.4,2.2,0.7c0.6,0.3,1.1,0.8,1.5,1.3c0.4,0.6,0.6,1.2,0.6,2
		c0,1-0.3,1.7-0.8,2.3c-0.6,0.5-1.2,0.9-2,1.2v0.1c0.9,0.3,1.7,0.8,2.3,1.4c0.6,0.6,0.9,1.5,0.9,2.7c0,0.6-0.1,1.2-0.4,1.7
		s-0.6,1-1.1,1.4s-1.1,0.7-1.8,0.9c-0.7,0.2-1.5,0.3-2.4,0.3h-10.5v-0.6c0.5,0,0.8-0.2,0.8-0.6v-14.1c0-0.4-0.3-0.6-0.8-0.6v-0.6h9
		V372.5z M351.9,378.9c0.9,0,1.6-0.1,2.1-0.4c0.6-0.2,0.8-0.7,0.8-1.5s-0.3-1.3-0.8-1.5c-0.6-0.2-1.3-0.4-2.1-0.4h-5.5v3.7
		L351.9,378.9L351.9,378.9z M351.9,386c1.2,0,2.1-0.2,2.6-0.6s0.8-0.9,0.8-1.6s-0.3-1.2-0.8-1.6s-1.4-0.6-2.6-0.6h-5.5v4.4
		L351.9,386L351.9,386z"/>
</g>
<g>
	<path class="st1" d="M372.6,372.5c0.9,0,1.7,0.1,2.5,0.3c0.7,0.2,1.4,0.5,1.9,0.8c0.5,0.4,0.9,0.9,1.2,1.5c0.3,0.6,0.4,1.4,0.4,2.3
		c0,1.4-0.4,2.4-1.1,3.1s-1.7,1.2-3,1.5l3.8,5.9c0.1,0.2,0.3,0.3,0.5,0.4c0.2,0,0.3,0.1,0.5,0.1v0.6H374v-0.6c0.2,0,0.3,0,0.4-0.1
		s0.2-0.1,0.2-0.2s0-0.2-0.1-0.4c-0.1-0.1-0.2-0.3-0.3-0.5l-3.1-4.8H367v5.5c0,0.2,0.1,0.3,0.2,0.4s0.3,0.1,0.7,0.1v0.6H363v-0.6
		c0.6,0,0.8-0.2,0.8-0.6v-14.1c0-0.4-0.3-0.6-0.8-0.6v-0.6L372.6,372.5L372.6,372.5z M371.8,379.7c0.7,0,1.3-0.1,1.7-0.2
		c0.5-0.1,0.8-0.3,1.1-0.5c0.3-0.2,0.5-0.4,0.6-0.7c0.1-0.3,0.2-0.6,0.2-0.9s-0.1-0.6-0.2-0.9s-0.3-0.5-0.6-0.7
		c-0.3-0.2-0.6-0.4-1.1-0.5s-1-0.2-1.7-0.2h-4.9v4.6L371.8,379.7L371.8,379.7z"/>
</g>
<g>
	<path class="st1" d="M397.6,375.8c0-0.2-0.1-0.4-0.2-0.5c-0.2-0.1-0.4-0.2-0.8-0.2h-9.3v3.9h5.6c0.4,0,0.7-0.1,0.9-0.2
		c0.2-0.1,0.3-0.4,0.3-0.9h0.5v4.8h-0.5c0-0.5-0.1-0.8-0.3-0.9c-0.2-0.1-0.5-0.2-0.9-0.2h-5.6v4.3h9.5c0.3,0,0.5-0.1,0.7-0.2
		s0.3-0.3,0.3-0.6h0.5v4.3h-0.5c0-0.3-0.1-0.5-0.3-0.5c-0.2,0-0.4-0.1-0.7-0.1h-13.3v-0.6c0.1,0,0.3,0,0.4-0.1s0.2-0.2,0.2-0.4
		v-14.1c0-0.2-0.1-0.3-0.2-0.4s-0.2-0.1-0.4-0.1v-0.6h13c0.4,0,0.7-0.1,0.8-0.2c0.2-0.1,0.2-0.3,0.2-0.5h0.5v4.1L397.6,375.8
		L397.6,375.8z"/>
</g>
<g>
	<path class="st1" d="M405.3,373c-0.3,0-0.4,0.2-0.4,0.6c0,0.1,0,0.2,0,0.4c0,0.1,0.1,0.4,0.2,0.7l3.1,8.6h0.1l3-8.8
		c0.1-0.3,0.2-0.5,0.2-0.6s0-0.3,0-0.4c0-0.4-0.1-0.6-0.4-0.6v-0.6h4.9v0.6c-0.1,0-0.2,0.1-0.3,0.2c-0.1,0.1-0.1,0.2-0.1,0.3
		c0,0.2,0.1,0.6,0.3,1.1l3.1,8.8h0.1l3.1-8.9c0.1-0.3,0.2-0.6,0.2-0.8c0-0.1,0-0.2-0.1-0.4c-0.1-0.1-0.2-0.2-0.3-0.2v-0.6h4.2v0.6
		c-0.2,0-0.4,0.1-0.5,0.4c-0.1,0.2-0.2,0.6-0.4,0.9l-4.1,11.9c-0.1,0.3-0.2,0.6-0.3,0.9c-0.1,0.2-0.1,0.5-0.1,0.6s0,0.3,0.1,0.4
		s0.2,0.2,0.4,0.2v0.6h-4.5v-0.6c0.1,0,0.2-0.1,0.4-0.2c0.1-0.1,0.2-0.2,0.2-0.3c0-0.2,0-0.3-0.1-0.6c-0.1-0.2-0.2-0.5-0.3-0.9
		l-3.3-9.2h-0.1l-3.1,9c-0.3,0.8-0.4,1.3-0.4,1.5c0,0.3,0.1,0.5,0.4,0.6v0.6h-4.4v-0.6c0.1,0,0.2,0,0.3-0.1c0.1-0.1,0.2-0.2,0.2-0.3
		c0-0.2,0-0.3-0.1-0.5s-0.1-0.4-0.2-0.6l-4.6-12.8c-0.1-0.2-0.2-0.4-0.2-0.6c-0.1-0.2-0.2-0.3-0.4-0.3v-0.6h4.4v0.6H405.3z"/>
</g>
<g>
	<path class="st1" d="M443.5,375.8c0-0.2-0.1-0.4-0.2-0.5c-0.2-0.1-0.4-0.2-0.8-0.2h-9.3v3.9h5.6c0.4,0,0.7-0.1,0.9-0.2
		c0.2-0.1,0.3-0.4,0.3-0.9h0.5v4.8H440c0-0.5-0.1-0.8-0.3-0.9c-0.2-0.1-0.5-0.2-0.9-0.2h-5.6v4.3h9.6c0.3,0,0.5-0.1,0.7-0.2
		s0.3-0.3,0.3-0.6h0.5v4.3h-0.5c0-0.3-0.1-0.5-0.3-0.5c-0.2,0-0.4-0.1-0.7-0.1h-13.3v-0.6c0.1,0,0.3,0,0.4-0.1s0.2-0.2,0.2-0.4
		v-14.1c0-0.2-0.1-0.3-0.2-0.4s-0.2-0.1-0.4-0.1v-0.6h13c0.4,0,0.7-0.1,0.8-0.2c0.2-0.1,0.2-0.3,0.2-0.5h0.5v4.1L443.5,375.8
		L443.5,375.8z"/>
</g>
<g>
	<path class="st1" d="M457.9,372.5c0.9,0,1.7,0.1,2.5,0.3c0.7,0.2,1.4,0.5,1.9,0.8c0.5,0.4,0.9,0.9,1.2,1.5c0.3,0.6,0.4,1.4,0.4,2.3
		c0,1.4-0.4,2.4-1.1,3.1s-1.7,1.2-3,1.5l3.8,5.9c0.1,0.2,0.3,0.3,0.5,0.4c0.2,0,0.3,0.1,0.5,0.1v0.6h-5.3v-0.6c0.2,0,0.3,0,0.4-0.1
		s0.2-0.1,0.2-0.2s0-0.2-0.1-0.4c-0.1-0.1-0.2-0.3-0.3-0.5l-3.1-4.8h-4.1v5.5c0,0.2,0.1,0.3,0.2,0.4s0.3,0.1,0.7,0.1v0.6h-4.9v-0.6
		c0.6,0,0.8-0.2,0.8-0.6v-14.1c0-0.4-0.3-0.6-0.8-0.6v-0.6L457.9,372.5L457.9,372.5z M457.2,379.7c0.7,0,1.3-0.1,1.7-0.2
		c0.5-0.1,0.8-0.3,1.1-0.5c0.3-0.2,0.5-0.4,0.6-0.7c0.1-0.3,0.2-0.6,0.2-0.9s-0.1-0.6-0.2-0.9s-0.3-0.5-0.6-0.7
		c-0.3-0.2-0.6-0.4-1.1-0.5s-1-0.2-1.7-0.2h-4.9v4.6L457.2,379.7L457.2,379.7z"/>
</g>
<g>
	<path class="st1" d="M472.6,372.5v0.6c-0.2,0-0.3,0-0.5,0.1s-0.2,0.2-0.2,0.4c0,0.1,0.1,0.4,0.4,0.9s0.6,1,1,1.6s0.8,1.2,1.2,1.8
		c0.4,0.6,0.7,1.2,1,1.6l3.3-5c0.2-0.2,0.3-0.4,0.4-0.6c0.1-0.1,0.1-0.3,0.1-0.4s-0.1-0.2-0.3-0.3c-0.2,0-0.3-0.1-0.5-0.1v-0.6h5
		v0.6c-0.2,0-0.3,0-0.4,0s-0.3,0.1-0.4,0.2s-0.3,0.3-0.5,0.5s-0.4,0.5-0.6,0.9l-4.9,7.5v5.5c0,0.4,0.2,0.6,0.7,0.6v0.6h-4.5v-0.6
		c0.2,0,0.3,0,0.4-0.1s0.2-0.2,0.2-0.4v-5.5l-5.5-8.4c-0.1-0.2-0.3-0.4-0.6-0.5s-0.5-0.2-0.7-0.2v-0.6h5.9V372.5z"/>
</g>
<g>
	<path class="st1" d="M372.7,192.1c-22.2,1.6-44.4,4.3-66.3,8.2l-12.7,2.3c-4.2,0.9-8.4,1.8-12.6,2.7l-6.3,1.4l-3.2,0.7l-3.1,0.8
		l-12.5,3.1c-2,0.5-4.1,1-6.2,1.6l-6.2,1.8l-12.4,3.5c-8.3,2.4-16.4,5.2-24.6,7.8l12.4-3.4l6.2-1.7c2-0.5,4.1-1.1,6.2-1.6l12.5-3.1
		l6.2-1.5c2.1-0.5,4.2-0.9,6.3-1.4l12.6-2.8l3.1-0.7l3.2-0.6l6.3-1.2c4.2-0.8,8.4-1.7,12.6-2.4l12.7-2.1l6.3-1l6.4-0.9l12.7-1.7
		c4.3-0.5,8.5-0.9,12.8-1.4l6.4-0.7c2.1-0.2,4.3-0.3,6.4-0.5l12.8-1.1l2-0.1V192.1z"/>
	<path class="st1" d="M599.5,220.9c-4-1.5-8-3-12.1-4.4c-8.2-2.8-16.4-5.3-24.7-7.6c-16.6-4.6-33.5-8.2-50.5-11
		c-21.9-3.6-43.9-5.8-66.1-6.9v4.2c4.8,0.2,9.5,0.4,14.3,0.7c17.1,1.1,34.1,2.9,51.1,5.3c17,2.5,33.8,5.7,50.5,9.7
		c8.3,2,16.6,4.2,24.8,6.7c4.2,1.2,8.2,2.5,12.3,3.9c4.1,1.4,8.1,2.9,12.1,4.5C607.3,224.1,603.3,222.5,599.5,220.9z"/>
</g>
<g>
	<path class="st1" d="M415.3,190.9c-4.5,1.7-8.9,3.4-13,5.8c5.6-2.4,11.4-4,17.5-5.2c-2.9-2.2-4.2-5-3.9-8.6c0.3-3.5,2-6.2,4.5-8.5
		c-0.3,0.2-0.5,0.3-0.8,0.4c-0.3,0.2-0.6,0.3-0.8,0.5c-0.9,0.7-1.8,1.4-2.6,2.2c-0.4,0.4-0.9,0.7-1.4,0.9c-6,1.6-11.7,3.8-17.1,7
		c-3.9,2.3-7.5,5.1-10.5,8.6c-0.1,0.1-0.2,0.3-0.4,0.3c7-9.4,16.9-14.3,27.9-17.8c-4.9,0.7-17.8,4.4-27.1,14
		c2.5-3.6,8.4-10.6,24.2-15.5c-1.7-0.1-9.9,2.6-13.4,4.5c-4.2,2.3-7.8,5.3-11.3,8.6c4.3-6.2,10.3-10.1,17.1-13.1
		c-3,0.9-5.9,2.2-8.6,3.8s-5.1,3.7-7.3,6c0.1-0.2,0.2-0.5,0.4-0.7c1.6-1.9,1.7-4.2,1.6-6.5c-0.1-1.4-0.3-2.7-0.5-4.1
		c0-0.2,0-0.5,0-0.8c2.9,0.3,5.6,1,7.8,2.9c0.4,0.3,0.6,0.4,1.1,0.1c6.3-3.5,13.1-5.7,20.2-6.9c4.7-0.8,9.4-1.1,14.2-1
		c4.5,0.1,8.9,0.6,13.2,2.2c1.4,0.5,2.7,1.3,4,2.1c0.5,0.3,0.9,1.1,1.2,1.7c0.3,0.5,0.1,0.9-0.5,1c-0.7,0.1-1.4,0.1-2.1,0.1
		c-0.4,0-0.9,0.1-1.2,0.3c-2.2,1.5-3.8,3.4-4.8,5.8c-0.6,1.5-1.1,3.1-1.6,4.7c-0.1,0.4-0.3,0.6-0.7,0.7c-3.4,0.6-6.8,0.6-10.3-0.3
		c-0.6-0.2-1.3,0.2-1.9,0.5c3.6,1.1,7.2,1.1,10.9,1c-0.6,0.1-1.2,0.2-1.8,0.3c-0.6,0.1-1.3,0.2-1.9,0.2c-3.4,0.3-6.8,0.1-10-1.1
		c-1.2-0.5-2.3-1.2-3.2-2.1c-0.2-0.2-0.3-0.4-0.4-0.6c1.5,0.7,3,0.9,4.6,0.7c0.5,0,1-0.3,1.3-0.6c3.5-3.1,7.1-6,11.3-8.1
		c2-1,4-1.5,6.2-1.6c0.2,0,0.4,0,0.6-0.1c-2.7-0.5-5.5-0.9-8.3-0.6c-0.1-0.5-0.2-1-0.3-1.5c0.1,1.5-0.8,2.3-1.8,3
		c-1.6,1.1-3.4,1.6-5.3,1.2c-0.2,0-0.3-0.1-0.7-0.2c1.6,0.2,2.8-0.2,4-0.8c-1,0.1-2,0.2-3,0.4c0-0.1,0-0.2,0-0.2
		c0.5-0.1,1-0.2,1.4-0.3c-0.2-0.3-0.6-0.6-0.6-0.8c0-0.4,0.3-0.8,0.5-1.1c0.4,0.2,0.7,0.3,0.9,0.4c0.1-0.2,0.1-0.4,0.3-0.8
		c0.3,0.1,0.6,0.3,1,0.4c0.4-0.9,0.1-1.5-1-1.6c-1.4-0.1-3.1,1-3.6,2.3c-0.1,0.2-0.2,0.4-0.4,0.5c-4.4,1.5-7.3,4.6-9.3,8.7
		c0,0.1-0.1,0.1-0.1,0.2c0-1.2,1.1-3.8,2.5-5.5c1.3-1.6,2.9-2.9,4.7-3.9c-3.9,1.6-7,4.1-8.8,8.1c0.1-2.4,2.4-5.5,6.4-8.6
		c-0.2,0-0.3,0-0.4,0.1c-2.5,1.2-4.6,2.9-6.1,5.2c-1.8,2.6-1.7,5.4,0.3,7.9c2.5,3,5.8,4.5,9.5,5c2.1,0.3,4.1,0.1,6.1-0.4
		c0.2-0.1,0.5-0.2,0.7-0.3c-2.7-0.2-5.4-0.4-8.1-1.3c1.6,0,3.1,0.1,4.7,0c4.6-0.3,9.1-1.3,13.3-3.3c1-0.5,1.8-1.6,2.6-2.5
		c0.7-0.8,1.4-1.6,2.1-2.3c0.6-0.6,1.2-0.5,1.6,0.2c0.8,1.4,0.7,2.9,0.2,4.3c-0.1,0.3-0.4,0.4-0.7,0.6c-4.8,3.5-10.2,5.6-15.9,6.9
		c-4.4,1-8.8,2-13.2,2.7c-5.4,0.9-10.8,2.2-16,3.8c-3,0.9-5.9,2.1-8.8,3.3c-1,0.4-1.9,1.2-2.8,1.8c-0.8,0.6-1,1.5-0.5,2.4
		c0.3,0.7,0.7,1.3,1.2,1.9c1.6,1.7,3.5,3,5.6,4c0.1,0,0.2,0.1,0.4,0.1c-2.9-2.1-5.9-3.9-5.2-8.1c0.3,3.5,2.8,4.9,5.5,6.3
		c-2.5-1.9-4.5-4-3.5-7.5c0,0.1,0,0.2,0,0.3c0,2.3,1.1,4.1,3.3,5c0.3,0.1,0.7,0.1,0.9,0c2.6-2.2,5.6-3.7,8.8-4.9
		c0.2-0.1,0.3-0.1,0.5-0.3c-3,0.7-5.9,1.9-8.5,3.5c0.4-0.3,0.7-0.6,1.1-0.9c0.4-0.3,0.8-0.6,1.2-0.9c3.3-2.1,7-3.2,10.9-3.5
		c0.7-0.1,1.4-0.1,2-0.2c0.2,0,0.7,0.1,0.7,0.2c0.1,0.2,0,0.6-0.2,0.8c-0.8,0.9-1.6,1.8-2.5,2.6c-3,2.7-6,5.4-8.6,8.5
		c-1,1.2-1.8,2.6-2.6,4c-1.3,2.5-1.8,5.1-0.5,7.8c-0.1,0-0.1,0.1-0.2,0.1c-0.5-0.6-1.2-1.2-1.6-1.8c-1.4-2-2.1-4.3-2.3-6.7
		c-0.1-1.2-0.5-1.9-1.7-2.4c-2.7-1.1-5-2.8-6.9-5c-0.2-0.2-0.4-0.4-0.7-0.5c0.5,1.7,0.9,3.4,1.4,5.2c-0.3-0.3-0.4-0.5-0.6-0.7
		s-0.3-0.5-0.5-0.7c-1.4-2.1-2.5-4.4-2.8-7c-0.2-1.9,0.8-3.4,1.9-4.7c1.9-2.2,4.4-3.7,6.9-5.1c4.4-2.4,9.1-4,13.9-5.3
		c1.5-0.4,3.1-0.7,4.7-1C415.1,190.9,415.2,190.9,415.3,190.9"/>
</g>
<g>
	<path class="st1" d="M410.2,190.3c1-0.4,2-0.9,3-1.3c0-0.1,0-0.1-0.1-0.2c-0.8,0.2-1.5,0.4-2.3,0.6c-1.5,0.3-2.9,0.1-4.3-0.2
		c-2.7-0.5-5.5-0.7-8.3-1c-0.2,0-0.4,0.1-0.6,0.2c-4.2,2.7-8,6-11.1,10c-0.1,0.1-0.1,0.1-0.2,0.2c1.2-2,2.7-3.8,4.3-5.5
		c1.6-1.6,3.4-3.2,5.1-4.8c-0.3,0-0.5,0-0.8-0.1c0-0.1,0-0.1,0-0.2c6.8-1.4,13.6-1.7,20.5-0.3C414.7,189.2,412.1,190.4,410.2,190.3"
		/>
</g>
<g>
	<path class="st1" d="M415.4,178.8c-0.2,0.3-0.3,0.4-0.4,0.5c-0.3,1.3-1.3,1.6-2.3,1.9c-4.1,1.3-8,3-11.7,5.1
		c-0.7,0.4-1.9,0.6-2.7,0.3C403.6,183.2,409.2,180.6,415.4,178.8"/>
</g>
<g>
	<path class="st1" d="M378.2,207.8c0.2-0.3,0.2-0.4,0.3-0.6c1.9-2.3,4.1-4.1,6.9-5.2c1.2-0.4,1.8-0.1,1.7,1.2c0,0.1,0,0.2,0,0.3
		c-0.1,1-0.1,1.1-1.1,1.3c-2.5,0.5-4.9,1.3-7.2,2.6C378.7,207.6,378.5,207.7,378.2,207.8"/>
</g>
<g>
	<path class="st1" d="M372.7,201.9c-22.2,1.6-44.4,4.3-66.3,8.2l-12.7,2.3c-4.2,0.9-8.4,1.8-12.6,2.7l-6.3,1.4l-3.2,0.7l-3.1,0.8
		l-12.5,3.1c-2,0.5-4.1,1-6.2,1.6l-6.2,1.8l-12.4,3.5c-8.3,2.4-16.4,5.2-24.6,7.8l12.4-3.4l6.2-1.7c2-0.5,4.1-1.1,6.2-1.6l12.5-3.1
		l6.2-1.5c2.1-0.5,4.2-0.9,6.3-1.4l12.6-2.8l3.1-0.7l3.2-0.6l6.3-1.2c4.2-0.8,8.4-1.7,12.6-2.4l12.7-2.1l6.3-1l6.4-0.9l12.7-1.7
		c4.3-0.5,8.5-0.9,12.8-1.4l6.4-0.7c2.1-0.2,4.3-0.3,6.4-0.5l12.8-1.1l2-0.1V201.9z"/>
	<path class="st1" d="M587.4,226.3c-8.2-2.8-16.4-5.3-24.7-7.6c-16.6-4.6-33.5-8.2-50.5-11c-21.9-3.6-43.9-5.8-66.1-6.9v4.2
		c4.8,0.2,9.5,0.4,14.3,0.7c17.1,1.1,34.1,2.9,51.1,5.3c17,2.5,33.8,5.7,50.5,9.7c8.3,2,16.6,4.2,24.8,6.7c4.2,1.2,8.2,2.5,12.3,3.9
		c4.1,1.4,8.1,2.9,12.1,4.5c-3.9-1.8-7.9-3.4-11.7-5.1C595.5,229.2,591.5,227.7,587.4,226.3z"/>
</g>
</svg>
